<?xml version="1.0" encoding="UTF-8"?>
<svg width="14px" height="16px" viewBox="0 0 14 16" version="1.1" xmlns="http://www.w3.org/2000/svg" xmlns:xlink="http://www.w3.org/1999/xlink">
    <!-- Generator: Sketch 54.1 (76490) - https://sketchapp.com -->
    <title>钱包管理-蓝色@2x</title>
    <desc>Created with Sketch.</desc>
    <g id="平台钱包管理*" stroke="none" stroke-width="1" fill="none" fill-rule="evenodd">
        <g id="1" transform="translate(-16.000000, -87.000000)" fill="#419EFF" fill-rule="nonzero">
            <g id="编组-3">
                <g id="钱包管理-蓝色" transform="translate(16.000000, 87.000000)">
                    <path d="M10.3981135,4.04223582 C10.1483034,3.90580742 9.94324643,3.73250649 9.781842,3.52132741 C9.61933709,3.31148915 9.50158522,3.08422023 9.42711909,2.83918545 C9.35265295,2.59482108 9.31486964,2.35883684 9.31486964,2.13190313 L9.31486964,0.000335204894 L3.64040351,0.000335204894 L2.1844622,0.000335204894 L0.700275121,0.000335204894 C0.520896109,0.000335204894 0.342617582,0.0623481103 0.205423818,0.187379536 C0.0682300537,0.312410961 0,0.475990949 0,0.639570938 L0,2.20028492 L0,3.34735607 L0,13.3260706 L0,13.7993799 L0,15.3600939 C0,15.5233386 0.0682300537,15.687589 0.205423818,15.8119501 C0.342617582,15.9369815 0.520896109,16 0.700275121,16 L2.40786061,16 L3.10373379,16 L10.849679,16 L11.5921394,16 L13.2997249,16 C13.4791039,16 13.6577492,15.9369815 13.7942094,15.8119501 C13.9317699,15.687589 14,15.5233386 14,15.3600939 L14,13.8674265 L14,13.7950222 L14,4.2467108 L11.274833,4.2467108 C10.9391851,4.2467108 10.6460893,4.17866421 10.3981135,4.04223582 L10.3981135,4.04223582 Z M10.490921,12.7756641 L3.49037076,12.7756641 C3.1675619,12.7756641 2.89390803,12.6704098 2.66977597,12.4605715 C2.44601074,12.2497276 2.3337613,11.9969832 2.3337613,11.7009972 C2.3337613,11.4050113 2.44601074,11.1549485 2.66977597,10.9504735 C2.89390803,10.7463337 3.1675619,10.6434258 3.49037076,10.6434258 L10.4905542,10.6434258 C10.8140967,10.6434258 11.0877506,10.7463337 11.3115158,10.9504735 C11.5356478,11.1549485 11.6478973,11.4046761 11.6478973,11.7009972 C11.6478973,11.996648 11.5356478,12.2497276 11.3115158,12.4605715 C11.0881174,12.6704098 10.8140967,12.7756641 10.490921,12.7756641 L10.490921,12.7756641 Z M11.6478973,7.45328082 C11.6478973,7.74926674 11.5356478,7.99932959 11.3115158,8.20413978 C11.0877506,8.40861477 10.8140967,8.51152267 10.4905542,8.51152267 L3.49037076,8.51152267 C3.1675619,8.51152267 2.89390803,8.40861477 2.66977597,8.20413978 C2.44601074,7.99932959 2.3337613,7.74926674 2.3337613,7.45328082 C2.3337613,7.15830051 2.44601074,6.90488561 2.66977597,6.69471214 C2.89390803,6.48487388 3.1675619,6.37861393 3.49037076,6.37861393 L10.4905542,6.37861393 C10.8140967,6.37861393 11.0877506,6.48453867 11.3115158,6.69471214 C11.5360147,6.90488561 11.6478973,7.15830051 11.6478973,7.45328082 L11.6478973,7.45328082 L11.6478973,7.45328082 Z M10.5466789,0.000335204894 L10.490921,0.000335204894 L10.490921,2.11480768 L10.490921,1.89323724 C10.490921,2.22106763 10.6273811,2.5478924 10.901035,2.79795525 C11.1739552,3.0480181 11.53308,3.17271432 11.8907376,3.17271432 L11.8859688,3.17271432 L14,3.17271432 L14,2.89952233 L14,0.639235733 C14,0.475655745 13.9317699,0.312075756 13.7942094,0.187044331 C13.6573824,0.0620129054 13.4791039,0 13.2997249,0 L10.5466789,0 L10.5466789,0.000335204894 L10.5466789,0.000335204894 Z" id="形状"></path>
                </g>
            </g>
        </g>
    </g>
</svg>